<svg height='300px' width='300px' xmlns="http://www.w3.org/2000/svg" xmlns:xlink="http://www.w3.org/1999/xlink" version="1.1" x="0px" y="0px" viewBox="0 0 20 20" enable-background="new 0 0 20 20" xml:space="preserve"><g><polygon fill="#187cb1" points="8.4,9.4 10,7.8 11.6,9.4 13,8 10,5 7,8  "></polygon><polygon fill="#187cb1" points="10,12.2 8.4,10.6 7,12 10,15 13,12 11.6,10.6  "></polygon><path fill="#187cb1" d="M19.7,9.3l-9-9c-0.4-0.4-1-0.4-1.4,0l-9,9c-0.4,0.4-0.4,1,0,1.4l9,9c0.2,0.2,0.8,0.6,1.4,0l9-9   C20.1,10.3,20.1,9.7,19.7,9.3z M10,17.6L2.4,10L10,2.4l7.6,7.6L10,17.6z"></path></g></svg>
